<?xml version="1.0" encoding="UTF-8"?>
<svg width="96px" height="78px" viewBox="0 0 96 78" version="1.1" xmlns="http://www.w3.org/2000/svg" xmlns:xlink="http://www.w3.org/1999/xlink">
    <title>编组 4</title>
    <g id="页面-1" stroke="none" stroke-width="1" fill="none" fill-rule="evenodd">
        <g id="DEFI-认购-LP认购备份" transform="translate(-1161.000000, -172.000000)">
            <g id="编组-4" transform="translate(1161.000000, 172.580841)">
                <polygon id="矩形" fill="#2BBCF8" points="16.216769 37.0257768 31.9499831 28.6702236 31.9499831 67.0374918 16.216769 76.5632414"></polygon>
                <polygon id="矩形" fill="#2892F9" points="0 9.67169977 47.7149787 37.9836638 47.7149787 55.358204 16.216769 37.9836638 16.216769 76.5632414 0 67.4635227"></polygon>
                <polygon id="矩形" fill="#296DEF" points="8.44248565e-13 9.67169977 15.4263571 -1.26009307e-13 64.4391221 28.6702236 47.7149787 37.9836638"></polygon>
                <polygon id="矩形" fill="#2BBCF8" points="47.7149787 37.9836638 64.4391221 28.6702236 64.4391221 45.9648561 47.7149787 55.358204"></polygon>
                <polygon id="矩形" fill="#296DEF" points="63.4954177 10.1050013 80.2195611 0.565270823 96 10.2202525 80.2195611 19.8752341"></polygon>
                <polygon id="矩形" fill="#2892F9" transform="translate(71.857489, 42.805243) scale(-1, 1) translate(-71.857489, -42.805243) " points="63.4954177 19.8752341 80.2195611 10.1050013 80.2195611 66.1121374 63.4954177 75.5054854"></polygon>
                <polygon id="矩形" fill="#2BBCF8" points="79.7477088 19.8752341 96 10.2202525 96 65.9260448 80.2195611 75.5054854"></polygon>
            </g>
        </g>
    </g>
</svg>