<?xml version="1.0" encoding="UTF-8"?>
<svg width="96px" height="96px" viewBox="0 0 96 96" version="1.1" xmlns="http://www.w3.org/2000/svg" xmlns:xlink="http://www.w3.org/1999/xlink">
    <title>切片</title>
    <defs>
        <linearGradient x1="50%" y1="0%" x2="50%" y2="100%" id="linearGradient-1">
            <stop stop-color="#4EA89C" offset="0%"></stop>
            <stop stop-color="#6ACDBA" offset="100%"></stop>
        </linearGradient>
    </defs>
    <g id="页面-1" stroke="none" stroke-width="1" fill="none" fill-rule="evenodd">
        <g id="DEFI-认购-LP认购" transform="translate(-872.000000, -282.000000)">
            <g id="REP" transform="translate(872.000000, 282.000003)">
                <g id="编组" transform="translate(0.000000, 0.000000)">
                    <path d="M0,48.0000486 L0,48.0000559 C0,74.5097742 21.4903375,96.0001117 48.0000559,96.0001117 C74.5097742,96.0001117 96.0001117,74.5097742 96.0001117,48.0000559 L96.0001117,48.0000559 C96.0001117,21.4903375 74.5097742,0 48.0000559,0 C21.4903375,0 0,21.4903375 0,48.0000559 L0,48.0000486 Z" id="路径" fill="url(#linearGradient-1)" fill-rule="nonzero"></path>
                    <g id="编组-64" transform="translate(21.600000, 36.000000)" stroke="#FFFFFF">
                        <line x1="1.416" y1="25.7415418" x2="1.416" y2="0.290553877" id="路径-67" stroke-width="4.36"></line>
                        <line x1="1.11011675" y1="0" x2="21.007321" y2="15.0339402" id="路径-68" stroke-width="4.12" stroke-linecap="round"></line>
                        <line x1="21.4430309" y1="15.2429539" x2="21.4430309" y2="25.7415418" id="路径-69" stroke-width="3.77"></line>
                    </g>
                    <g id="编组-63" transform="translate(62.970485, 48.870771) scale(-1, 1) translate(-62.970485, -48.870771) translate(51.540969, 36.000000)" stroke="#FFFFFF">
                        <line x1="1.416" y1="25.7415418" x2="1.416" y2="0.290553877" id="路径-67备份" stroke-width="4.36"></line>
                        <line x1="1.11011675" y1="0" x2="21.007321" y2="15.0339402" id="路径-68备份" stroke-width="4.12" stroke-linecap="round"></line>
                        <line x1="21.4430309" y1="15.2429539" x2="21.4430309" y2="25.7415418" id="路径-69备份" stroke-width="3.77"></line>
                    </g>
                </g>
            </g>
        </g>
    </g>
</svg>