<?xml version="1.0" encoding="UTF-8"?>
<svg width="96px" height="96px" viewBox="0 0 96 96" version="1.1" xmlns="http://www.w3.org/2000/svg" xmlns:xlink="http://www.w3.org/1999/xlink">
    <title>切片</title>
    <defs>
        <linearGradient x1="50%" y1="0%" x2="50%" y2="100%" id="linearGradient-1">
            <stop stop-color="#0A0721" offset="0%"></stop>
            <stop stop-color="#191F56" offset="100%"></stop>
        </linearGradient>
    </defs>
    <g id="页面-1" stroke="none" stroke-width="1" fill="none" fill-rule="evenodd">
        <g id="DEFI-认购-LP认购" transform="translate(-1121.000000, -282.000000)">
            <g id="编组-63" transform="translate(1121.000000, 282.000000)">
                <path d="M0,48.0000486 L0,48.0000559 C0,74.5097742 21.4903375,96.0001117 48.0000559,96.0001117 C74.5097742,96.0001117 96.0001117,74.5097742 96.0001117,48.0000559 L96.0001117,48.0000559 C96.0001117,21.4903375 74.5097742,0 48.0000559,0 C21.4903375,0 0,21.4903375 0,48.0000559 L0,48.0000486 Z" id="路径" fill="url(#linearGradient-1)" fill-rule="nonzero"></path>
                <polygon id="路径-67" fill="#01D1FF" points="19.2 60.5260255 19.2 68.8654983 35.6595521 68.8654983 47.3255792 55.3503323 58.0423998 68.8654983 75.4461419 68.8654983 75.4461419 60.5260255 62.8819258 60.5260255 53.3653985 48.8327492 62.8819258 37.051035 75.4461419 37.051035 75.4511584 28.8 58.96749 28.8 31.0330067 60.5260255"></polygon>
                <polygon id="路径-68" fill="#01D1FF" points="19.2 28.8 19.2 36.3586367 31.8102459 36.3586367 37.0544754 41.9613206 42.8660134 36.3586367 34.9366022 28.8"></polygon>
            </g>
        </g>
    </g>
</svg>