<?xml version="1.0" encoding="UTF-8"?>
<svg width="89px" height="83px" viewBox="0 0 89 83" version="1.1" xmlns="http://www.w3.org/2000/svg" xmlns:xlink="http://www.w3.org/1999/xlink">
    <title>REP</title>
    <defs>
        <linearGradient x1="-1.6719406%" y1="11.0207988%" x2="52.0139615%" y2="67.5792595%" id="linearGradient-1">
            <stop stop-color="#3EABD8" offset="0%"></stop>
            <stop stop-color="#F12B8B" offset="100%"></stop>
        </linearGradient>
        <path d="M1.09819399,15.8507804 C2.02884885,10.9562151 8.10645229,7.36329826 11.5477258,5.46206691 C20.6969754,0.680947333 32.315699,0 41.862419,0 C49.7697423,0 63.3720492,1.17623286 73.1547161,7.12052786 C76.8839047,9.36569108 79.921496,12.3643723 81.4994721,15.8507804 C82.6683838,17.7866151 82.3425418,38.9151121 81.2209811,51.3451517 C81.1033709,54.6445399 71.799903,64.9870147 41.5765067,65.043439 C24.1033784,64.0158053 5.91462441,60.6074506 1.09819399,50.1939853 C-0.818794705,46.7572226 0.167539128,20.7453456 1.09819399,15.8507804 Z" id="path-2"></path>
    </defs>
    <g id="页面-1" stroke="none" stroke-width="1" fill="none" fill-rule="evenodd">
        <g id="币种" transform="translate(-756.000000, -942.000000)">
            <g id="编组-36" transform="translate(736.000000, 920.000000)">
                <g id="编组" transform="translate(15.000000, 15.000003)">
                    <g id="编组-10" transform="translate(50.400000, 49.200000) rotate(35.000000) translate(-50.400000, -49.200000) translate(7.200000, 14.400000)">
                        <path d="M42.8850203,0.3 C50.9442414,0.3 64.6375143,1.6752596 74.6104115,7.87601496 C78.3749166,10.1951277 81.3372213,13.1343976 82.9306615,16.7368143 C83.514738,17.7306022 83.7677336,23.0090315 83.7842476,29.6429729 L83.7842476,29.6429729 L83.7842143,30.9182196 C83.7788832,33.0674384 83.7472121,35.3342586 83.6897071,37.6278037 L83.6897071,37.6278037 L83.6653106,38.5471201 C83.6567235,38.8537509 83.647678,39.1606504 83.6381895,39.4671577 L83.6381895,39.4671577 L83.6082971,40.3884035 C83.4625274,44.682705 83.2274621,48.9456232 82.9061799,52.5891067 C82.8635997,53.7992448 81.5554421,55.9987129 78.6033109,58.3508972 C76.4083681,60.0997727 73.3024305,61.9244549 69.101385,63.4883395 C62.7771122,65.8426184 53.9804575,67.6024738 42.0833271,67.6259858 C32.1559376,67.0280102 22.1614564,65.7417474 14.4019219,62.8406487 C8.28607452,60.5540841 3.55723392,57.2679708 1.39839058,52.4918919 C0.598684523,51.0231144 0.319541924,45.6989631 0.300931349,39.5631655 L0.300931349,39.5631655 L0.300368159,38.5499693 C0.302957426,37.1573112 0.319093061,35.7318742 0.346571948,34.3072173 L0.366547512,33.3579298 C0.532206483,26.086592 0.981400905,19.0304466 1.41997129,16.6702664 C2.35843421,11.619899 8.51608805,7.94351069 11.9712714,5.99012323 C21.3013214,1.00118089 33.1510809,0.3 42.8850203,0.3 Z" id="矩形" stroke="#FFFFFF" stroke-width="0.6" fill="url(#linearGradient-1)"></path>
                        <g id="编组-8" transform="translate(0.466005, 1.440000)">
                            <mask id="mask-3" fill="white">
                                <use xlink:href="#path-2"></use>
                            </mask>
                            <g id="矩形"></g>
                            <path d="M27.36,64.8659767 C29.6897312,63.6366304 31.2783842,60.5980694 32.1259591,55.7502936 C32.9735339,50.9025178 33.8650988,47.7468565 34.8006536,46.2833098 C35.2896482,42.7840332 39.1175432,41.9092141 46.2843386,43.6588524 C57.0345316,46.2833098 62.0294431,43.6588524 62.0294431,43.6588524 C62.0294431,43.6588524 66.5647614,42.279046 66.5647614,30.7068457 C66.5647614,22.9920455 67.5041526,18.2666986 69.382935,16.5308049 L70.7394639,12.2302683 C73.0102384,9.3632439 75.9360852,9.3632439 79.5170043,12.2302683 C83.0979233,15.0972927 84.9122552,20.682696 84.96,28.9864783 L84.96,51.4696103 L78.171217,73.1211932 L52.4102103,77.76 C42.4536355,75.6362028 36.5837833,74.0899339 34.8006536,73.1211932 C33.0175239,72.1524526 30.537306,69.4007137 27.36,64.8659767 Z" id="路径-4" stroke="#0E0F25" stroke-width="0.6" fill="#0E0F25" mask="url(#mask-3)"></path>
                        </g>
                        <path d="M41.5060048,2.88 C61.7859008,2.88 78.2260048,9.97180956 78.2260048,18.72 C78.2260048,27.4681904 61.7859008,34.56 41.5060048,34.56 C21.2261088,34.56 4.78600476,27.4681904 4.78600476,18.72 C4.78600476,9.97180956 21.2261088,2.88 41.5060048,2.88 Z M40.7860048,11.52 C30.4472342,11.52 22.0660048,14.7435498 22.0660048,18.72 C22.0660048,22.6964502 30.4472342,25.92 40.7860048,25.92 C51.1247753,25.92 59.5060048,22.6964502 59.5060048,18.72 C59.5060048,14.7435498 51.1247753,11.52 40.7860048,11.52 Z" id="形状结合" fill="#FFFFFF"></path>
                        <path d="M5.26993721,29.2034356 C6.13398485,29.8425318 7.06698487,30.4578502 8.06402553,31.0458382 M11.1855848,32.6973593 C16.5097785,35.2247757 23.1763379,37.0534284 30.6550767,37.7998686 M62.2338149,34.8360573 C63.8526474,34.3339376 65.3887083,33.7809951 66.8297176,33.181303 M69.3618251,32.0306426 C73.2206697,30.1153581 76.2034378,27.8219741 78.0035285,25.2521925" id="形状" stroke="#FFFFFF" stroke-width="0.6" stroke-linecap="round" stroke-linejoin="round" transform="translate(41.636733, 31.526031) rotate(2.000000) translate(-41.636733, -31.526031) "></path>
                    </g>
                </g>
            </g>
        </g>
    </g>
</svg>