<?xml version="1.0" encoding="UTF-8"?>
<svg width="96px" height="96px" viewBox="0 0 96 96" version="1.1" xmlns="http://www.w3.org/2000/svg" xmlns:xlink="http://www.w3.org/1999/xlink">
    <title>编组 9备份 6</title>
    <g id="页面-1" stroke="none" stroke-width="1" fill="none" fill-rule="evenodd">
        <g id="DEFI-认购-LP认购" transform="translate(-499.000000, -282.000000)">
            <g id="编组-9备份-6" transform="translate(499.000000, 282.000000)">
                <g id="编组-5备份" fill="#18BC9B">
                    <rect id="矩形备份-12" x="0" y="0" width="96" height="96" rx="48"></rect>
                </g>
                <g id="编组-5" transform="translate(24.000000, 28.363636)" fill="#FFFFFF">
                    <path d="M0.8,0 L13.0863814,0 C13.1968369,0.000571279256 13.2859178,0.0905741077 13.2853491,0.201029594 C13.2851018,0.249072707 13.2675686,0.295421409 13.2334169,0.32938074 C9.06568443,5.0984195 6.98181818,11.7265938 6.98181818,20.2139037 C6.98181818,34.8128342 16.5854255,39.0802139 23.7818182,39.0802139 C30.9357111,39.0802139 40.5818182,34.8128342 40.5818182,20.2139037 C40.5818182,11.7265938 38.4979519,5.0984195 34.3302194,0.32938074 C34.2550001,0.248422973 34.2635089,0.12207616 34.3466852,0.0493958463 C34.3828632,0.0177832154 34.4292119,0.000249977964 34.477255,0 L46.7656561,0 C47.207441,0.000226068995 47.5654123,0.358514632 47.5652428,0.800299609 C47.5980463,17.2864538 47.5975108,26.1533771 47.5636364,27.4010695 C47.5120085,29.3026689 47.0331871,31.8587976 46.6700303,32.9140327 C43.6264446,41.7578671 35.9970406,45.8181818 23.7818182,45.8181818 C11.7342294,45.8181818 4.14745716,41.5167988 1.02150144,32.9140327 C0.599831091,31.7535776 0,28.7486631 0,27.4010695 C0,18.5340463 0,9.66702317 0,0.8 C-5.41083001e-17,0.3581722 0.3581722,6.36273962e-16 0.8,0 Z" id="矩形"></path>
                    <polygon id="矩形" points="21.3818182 13.6042781 53.4736099 9.43315508 54.1090909 16.171123 22.0172992 18.4171123"></polygon>
                    <polygon id="矩形备份-4" points="22.2545455 22.437189 54.4940865 21.1122995 54.5454545 27.8502674 22.4716077 27.2659314"></polygon>
                </g>
            </g>
        </g>
    </g>
</svg>