<?xml version="1.0" encoding="UTF-8"?>
<svg width="32px" height="32px" viewBox="0 0 32 32" version="1.1" xmlns="http://www.w3.org/2000/svg" xmlns:xlink="http://www.w3.org/1999/xlink">
    <title>编组 9备份 5</title>
    <g id="页面-1" stroke="none" stroke-width="1" fill="none" fill-rule="evenodd">
        <g id="DEFI-认购-LP认购" transform="translate(-107.000000, -590.000000)">
            <g id="编组-9备份-5" transform="translate(107.000000, 590.000000)">
                <g id="编组-5备份" fill="#18BC9B">
                    <rect id="矩形备份-12" x="0" y="0" width="32" height="32" rx="16"></rect>
                </g>
                <g id="编组-5" transform="translate(8.000000, 9.454545)" fill="#FFFFFF">
                    <path d="M0.8,0 L4.07645597,0 C4.1869129,5.22777125e-05 4.27641358,0.089637679 4.27636133,0.200094617 C4.27633977,0.245650913 4.26076606,0.289834727 4.23092925,0.324300241 C2.9618249,1.89606939 2.32727273,4.03395861 2.32727273,6.73796791 C2.32727273,11.6042781 5.52847516,13.026738 7.92727273,13.026738 C10.3119037,13.026738 13.5272727,11.6042781 13.5272727,6.73796791 C13.5272727,4.03395861 12.8927206,1.89606939 11.6236162,0.324300241 C11.5531075,0.239259095 11.5667717,0.113365467 11.6528484,0.0441444496 C11.6883494,0.0155952863 11.7325332,2.15743033e-05 11.7780895,0 L15.0558771,0 C15.4975721,-0.000135539003 15.8557992,0.357719543 15.8561212,0.799414459 C15.8659918,5.95334458 15.8654665,8.73143637 15.8545455,9.13368984 C15.8373362,9.76755629 15.677729,10.6195992 15.5566768,10.9713442 C14.5421482,13.919289 11.9990135,15.2727273 7.92727273,15.2727273 C3.9114098,15.2727273 1.38248572,13.8389329 0.34050048,10.9713442 C0.199943697,10.5845259 0,9.5828877 0,9.13368984 C0,6.35579323 0,3.57789661 0,0.8 C5.69140024e-17,0.3581722 0.3581722,8.58318567e-16 0.8,0 Z" id="矩形"></path>
                    <polygon id="矩形" points="7.12727273 4.53475936 17.8245366 3.14438503 18.0363636 5.39037433 7.33909974 6.13903743"></polygon>
                    <polygon id="矩形备份-4" points="7.41818182 7.47906301 18.1646955 7.03743316 18.1818182 9.28342246 7.49053591 9.0886438"></polygon>
                </g>
            </g>
        </g>
    </g>
</svg>