<?xml version="1.0" encoding="UTF-8"?>
<svg width="64px" height="64px" viewBox="0 0 64 64" version="1.1" xmlns="http://www.w3.org/2000/svg" xmlns:xlink="http://www.w3.org/1999/xlink">
    <title>编组 9备份 7</title>
    <g id="页面-1" stroke="none" stroke-width="1" fill="none" fill-rule="evenodd">
        <g id="DEFI-认购-LP认购" transform="translate(-515.000000, -195.000000)">
            <g id="编组-9备份-7" transform="translate(515.000000, 195.000000)">
                <g id="编组-5备份" fill="#18BC9B">
                    <rect id="矩形备份-12" x="0" y="0" width="64" height="64" rx="32"></rect>
                </g>
                <g id="编组-5" transform="translate(16.000000, 18.909091)" fill="#FFFFFF">
                    <path d="M0.8,0 L8.58004261,0 C8.69049931,0.000238104683 8.7798495,0.0899735942 8.77961186,0.200430289 C8.77950995,0.24779751 8.76259965,0.293591139 8.72910094,0.327280004 C6.01273062,3.49845107 4.65454545,7.88133634 4.65454545,13.4759358 C4.65454545,23.2085561 11.0569503,26.0534759 15.8545455,26.0534759 C20.6238074,26.0534759 27.0545455,23.2085561 27.0545455,13.4759358 C27.0545455,7.88133634 25.6963603,3.49845107 22.97999,0.327280004 C22.9055913,0.245554737 22.9157201,0.119327469 22.999822,0.0477201062 C23.0358874,0.0170126705 23.0816811,0.000102370976 23.1290483,0 L30.9104226,0 C31.3522504,-0.000148769273 31.7105432,0.357902772 31.710692,0.799730547 C31.7106921,0.799952162 31.710692,0.800173777 31.7106905,0.800395391 C31.7320236,11.6200141 31.7314904,17.4423422 31.7090909,18.2673797 C31.6746723,19.5351126 31.3554581,21.2391984 31.1133535,21.9426885 C29.0842964,27.838578 23.998027,30.5454545 15.8545455,30.5454545 C7.8228196,30.5454545 2.76497144,27.6778659 0.68100096,21.9426885 C0.399887394,21.1690517 0,19.1657754 0,18.2673797 C0,12.4449198 0,6.62245989 0,0.8 C-5.41083001e-17,0.3581722 0.3581722,7.47296265e-16 0.8,0 Z" id="矩形"></path>
                    <polygon id="矩形" points="14.2545455 9.06951872 35.6490733 6.28877005 36.0727273 10.7807487 14.6781995 12.2780749"></polygon>
                    <polygon id="矩形备份-4" points="14.8363636 14.958126 36.329391 14.0748663 36.3636364 18.5668449 14.9810718 18.1772876"></polygon>
                </g>
            </g>
        </g>
    </g>
</svg>