<?xml version="1.0" encoding="UTF-8"?>
<svg width="96px" height="96px" viewBox="0 0 96 96" version="1.1" xmlns="http://www.w3.org/2000/svg" xmlns:xlink="http://www.w3.org/1999/xlink">
    <title>切片</title>
    <defs>
        <linearGradient x1="85.2664368%" y1="81.19948%" x2="12.6194489%" y2="21.3455912%" id="linearGradient-1">
            <stop stop-color="#FAE3F0" offset="0%"></stop>
            <stop stop-color="#FFF6FB" offset="100%"></stop>
        </linearGradient>
        <linearGradient x1="20.6723193%" y1="10.173977%" x2="86.9085268%" y2="83.3629694%" id="linearGradient-2">
            <stop stop-color="#FFFCFF" offset="0%"></stop>
            <stop stop-color="#F9C3DB" offset="100%"></stop>
        </linearGradient>
    </defs>
    <g id="页面-1" stroke="none" stroke-width="1" fill="none" fill-rule="evenodd">
        <g id="DEFI-认购-LP认购" transform="translate(-630.000000, -282.000000)">
            <g id="编组" transform="translate(630.000000, 282.000003)">
                <path d="M48.0000559,0.5 C61.1168437,0.5 72.9918578,5.81661993 81.5876748,14.4124369 C90.1834918,23.0082539 95.5001117,34.883268 95.5001281,47.9960053 L95.5001281,47.9960053 L95.4937468,48.7857195 C95.2838382,61.7322908 89.894221,73.419691 81.3069843,81.8660534 C72.7342637,90.298138 60.9746564,95.5001117 48.0000559,95.5001117 C34.883268,95.5001117 23.0082539,90.1834918 14.4124369,81.5876748 C5.81661993,72.9918578 0.5,61.1168437 0.499983593,48.0041064 L0.499983593,48.0041064 L0.506364924,47.2143922 C0.716273509,34.2678209 6.10589075,22.5804207 14.6931274,14.1340583 C23.265848,5.70197373 35.0254553,0.5 48.0000559,0.5 Z" id="路径" stroke="url(#linearGradient-2)" fill="url(#linearGradient-1)" fill-rule="nonzero"></path>
                <g id="编组-63" transform="translate(21.600000, 16.800000)" fill="#FD497D">
                    <path d="M31.5177901,18.8515597 C31.565516,23.0134107 33.4232528,25.8539945 37.0910004,27.3733113 C42.5926217,29.6522865 52.0561302,32.431235 52.0561302,38.0143988 C53.7911068,33.040442 53.4048333,29.0614552 50.8973098,26.0774385 C48.9497103,23.7597454 45.700355,22.1692217 39.0957923,21.6256559 C36.639182,21.4234731 34.1131813,20.4987743 31.5177901,18.8515597 Z" id="路径-67"></path>
                    <path d="M39.354723,30.6707343 C38.7295405,33.8312618 39.2295336,36.27915 40.8547024,38.0143988 C43.2924556,40.617272 47.9460234,48.8984083 44.9954139,52.4737606 C49.2296829,51.4386066 51.3468175,48.1745077 51.3468175,42.6814639 C51.3468175,38.20977 48.4896319,35.0313396 43.131334,33.1414573 C42.3126925,32.8527208 41.0538222,32.0291465 39.354723,30.6707343 Z" id="路径-68"></path>
                    <path d="M35.8387974,29.1555079 C37.2296938,34.3122324 35.4268677,37.3749247 30.4303193,38.3435846 C25.4337709,39.3122446 22.5135137,40.2591084 21.6695479,41.1841761 C22.9607204,40.2521293 25.6854462,39.9152012 29.8437252,40.1733919 C33.1333376,39.9128821 35.8709847,38.6710333 37.1082945,35.9863093 C37.9331676,34.1964934 37.5100019,31.9195596 35.8387974,29.1555079 Z" id="路径-69"></path>
                    <path d="M12.0185136,48.5191612 C14.3811501,48.326092 16.809018,49.4641633 19.3021173,51.933375 C23.0417663,55.6371926 25.7092316,54.3549429 26.1886233,53.9107919 C26.668015,53.4666409 28.3763031,50.915529 25.5068436,48.9249214 C23.4107081,48.262483 22.2926792,48.8618261 22.1527569,50.7229508 C22.2123157,51.6244754 22.5835674,52.0279501 23.266512,51.933375 C22.8002401,52.0126393 22.6615124,51.6638281 22.850329,50.8869414 C23.0391455,50.1100547 23.4704222,49.694571 24.1441591,49.6404902 C24.9607315,49.6466093 25.5056187,49.9304751 25.7788205,50.4920876 C26.0520223,51.0537002 25.9613634,51.7557596 25.5068436,52.5982658 C25.1151268,53.2116281 24.4581831,53.4307776 23.5360126,53.2557144 C22.1527569,52.9931196 20.987252,52.1234272 20.987252,51.0383442 C20.987252,49.9532612 21.715332,48.1973552 22.6256723,47.9796043 C23.5360126,47.7618534 24.7671661,47.3978321 26.3779632,48.5191612 C27.451828,49.2667139 28.3506295,50.1064416 29.0743678,51.0383442 C31.5500203,55.2282058 32.8600805,57.3991877 33.0045484,57.5512899 C33.2212503,57.7794432 35.259507,59.2731915 38.0297774,58.0892421 C39.8766242,57.2999425 40.1279716,56.9424441 38.7838196,57.0167469 C37.1907677,57.7440401 35.9879658,57.7019351 35.1754138,56.8904321 C33.9565857,55.6731776 33.1503567,53.9411358 32.8637228,51.790813 C32.6726335,50.3572645 32.1024834,48.6390343 31.1532725,46.6361224 C29.1286235,43.7741537 25.8665852,42.7926575 21.3671578,43.6916339 C16.8677304,44.5906102 13.7515157,46.199786 12.0185136,48.5191612 Z" id="路径-70"></path>
                    <path d="M1.15256965,2.38742359e-13 C8.28083568,6.28015717 13.5401546,11.0574749 16.9305264,14.3319531 C17.2979193,14.6867872 17.6752473,15.3534381 18.0625105,16.3319057 C18.8879793,18.5500209 17.7662452,20.1994085 14.6973081,21.2800685 L14.6973081,21.2800685 L12.3401387,21.5245206 C10.8807329,22.0331316 10.182749,23.1472266 10.246187,24.8668056 C10.6420931,26.4334913 10.2459102,28.0512152 9.05763815,29.7199774 C7.8693661,31.3887396 7.47888482,33.5972229 7.88619432,36.3454272 C9.28315852,38.3793176 10.5891174,39.6484648 11.8040711,40.1528687 C13.0190247,40.6572727 13.450082,41.7294202 13.0972428,43.3693112 C13.0972428,46.5815343 9.90524933,48.6462457 3.52126245,49.5634453 C3.7006671,49.3170004 3.61096477,48.6790704 3.25215548,47.6496554 C1.91051307,45.7654061 0.984496822,44.1580473 0.474106734,42.8275792 C-0.0362833531,41.4971111 -0.0362833531,39.725403 0.474106734,37.5124549 C0.668371583,36.2617688 0.89452589,35.4808978 1.15256965,35.169842 C4.37149672,31.2896243 5.39423682,29.2000698 6.19970525,28.0372507 C7.59579177,26.0217824 7.44135924,24.1194545 7.44135924,23.6117679 C7.44135924,23.1040813 7.88619432,20.4302102 8.56677592,19.8758635 C9.02049699,19.5062991 9.18411773,18.7501027 9.05763815,17.6072745 L9.05763815,17.6072745 L4.72643561,7.46022047 L11.8040711,18.8515597 C12.9843421,18.8515597 13.9487544,18.8282807 14.6973081,18.7817227 C15.4458619,18.7351646 15.7164991,17.9185589 15.5092197,16.3319057 L15.5092197,16.3319057 Z M3.2489891,38.9205449 L2.62684065,39.1604604 C2.94882013,39.5906032 3.05614662,39.9276461 2.94882013,40.171589 C2.84149363,40.4155318 2.73416714,40.7530609 2.62684065,41.1841761 C2.70508647,41.5586372 2.91246929,41.7458678 3.2489891,41.7458678 C3.75376882,41.7458678 4.98315928,41.1610639 4.98315928,40.6663264 C4.98315928,40.3365014 4.59043951,39.8345461 3.80499996,39.1604604 L3.2489891,38.9205449 Z" id="形状结合"></path>
                    <path d="M15.0925403,5.27165539 C15.5725442,6.1410238 15.6978551,7.12788163 15.4684731,8.2322289 C15.2520171,10.3511559 17.4818771,15.6312217 22.8074955,16.4808809 C21.8154506,14.3848843 21.1831128,12.5166801 20.9104822,10.8762681 C20.738791,9.84320629 19.8186498,7.72659378 18.3249634,6.51284957 C17.7395253,6.03713252 16.6620509,5.62340113 15.0925403,5.27165539 Z" id="路径-73"></path>
                    <path d="M15.7755979,3.68265338 C20.9348665,4.97561584 24.6961711,7.815368 27.0595117,12.2019099 C29.4228524,16.5884517 33.7042184,19.0647229 39.9036097,19.6307235 C44.1308456,19.1786596 47.390455,20.260213 49.6824378,22.8753837 C48.878427,19.5233455 47.6231212,17.0859422 45.9165203,15.5631738 C45.7298613,18.0867965 44.8686356,19.1829252 43.3328433,18.8515597 C42.5387703,18.1895943 42.4302478,17.5295133 43.0072758,16.8713166 C43.5843039,16.2131199 43.5843039,14.7994458 43.0072758,12.6302945 C39.6603671,10.0206408 34.6186973,9.00152759 27.8822664,9.57295499 C25.6976118,7.2082683 24.0592629,5.77450177 22.9672197,5.27165539 C20.6636537,4.21094662 18.2664465,3.68127928 15.7755979,3.68265338 Z" id="路径-74"></path>
                    <path d="M44.0825227,4.92133523 C44.0881074,7.75200175 44.2353794,9.41980143 44.5243389,9.92473426 C44.8132984,10.4296671 46.3053248,12.0443641 49.0004182,14.7688253 C46.8848806,13.2202298 45.5706976,12.3840672 45.0578692,12.2603375 C45.1292184,14.8987174 44.8041029,16.7307358 44.0825227,17.7563926 C44.18738,14.1919174 44.0132437,12.1094305 43.5601136,11.5089321 C42.8804186,10.6081845 40.1617828,9.09165287 38.1537505,8.63784882 C40.2803611,8.64892191 41.9627003,9.07788372 43.2007678,9.92473426 C43.357758,8.51230689 43.4775399,7.57181654 43.5601136,7.10326321 C43.6734854,6.45995009 43.8476218,5.73264076 44.0825227,4.92133523 Z" id="路径-75"></path>
                    <path d="M20.2272422,21.9354184 C17.9024684,22.5135419 16.938796,23.6904628 17.3362251,25.4661809 C17.6711415,26.9625916 19.308802,27.4156326 21.6695479,26.3899706 C21.9633058,26.262343 22.3426217,25.9544131 22.8074955,25.4661809 C23.7472316,23.9570612 23.0030278,22.7801403 20.5748842,21.9354184 C21.6437474,22.4819958 22.0603542,22.9856944 21.8247045,23.446514 C21.4712299,24.1377435 20.2250034,24.3666939 19.4480402,23.7264166 C18.9300648,23.299565 19.1897987,22.7025656 20.2272422,21.9354184 Z" id="路径-76"></path>
                </g>
            </g>
        </g>
    </g>
</svg>