<?xml version="1.0" encoding="UTF-8"?>
<svg width="82px" height="83px" viewBox="0 0 82 83" version="1.1" xmlns="http://www.w3.org/2000/svg" xmlns:xlink="http://www.w3.org/1999/xlink">
    <title>编组 3</title>
    <defs>
        <path d="M48,82.4647221 C67.0343404,82.4647221 82.4647221,67.0343404 82.4647221,48 C82.4647221,28.9656596 67.0343404,13.5352779 48,13.5352779 C28.9656596,13.5352779 13.5352779,28.9656596 13.5352779,48 C13.5352779,67.0343404 28.9656596,82.4647221 48,82.4647221 Z" id="path-1"></path>
        <mask id="mask-2" maskContentUnits="userSpaceOnUse" maskUnits="objectBoundingBox" x="0" y="0" width="68.9294441" height="68.9294441" fill="white">
            <use xlink:href="#path-1"></use>
        </mask>
    </defs>
    <g id="页面-1" stroke="none" stroke-width="1" fill="none" fill-rule="evenodd">
        <g id="DEFI-认购-LP认购备份" transform="translate(-1295.000000, -170.000000)">
            <g id="编组-3" transform="translate(1287.990963, 162.990963)">
                <circle id="椭圆形" stroke="#4A4A4A" stroke-width="3" cx="48" cy="48.4254904" r="39.347078"></circle>
                <use id="椭圆形" stroke="#4A4A4A" mask="url(#mask-2)" stroke-width="6" stroke-dasharray="45,8" transform="translate(48.000000, 48.000000) rotate(35.000000) translate(-48.000000, -48.000000) " xlink:href="#path-1"></use>
                <path d="M59.6814101,37.3799364 C57.9230928,32.9201706 53.5137044,32.5176157 48.3792366,33.5126953 L46.5506773,27.1509706 L42.671503,28.261389 L44.452479,34.4580209 C43.4328363,34.7474986 42.3950665,35.0686379 41.3640944,35.3852541 L39.5740549,29.1479144 L35.6971465,30.2560712 L37.5211741,36.6177959 C36.6873329,36.875612 35.867087,37.1289049 35.0627022,37.3595825 L35.0559045,37.336967 L29.703913,38.8680327 L30.8934962,43.0066591 C30.8934962,43.0066591 33.7439642,42.1291798 33.7099761,42.1970262 C35.2824918,41.7469788 36.0551544,42.5113808 36.4290234,43.255429 L38.5136264,50.5014176 C38.6201224,50.4720175 38.7628724,50.4358328 38.930547,50.4109558 L38.520424,50.5285561 L41.4366023,60.6828909 C41.5091103,61.1962615 41.4456658,62.0669561 40.3489834,62.3835724 C40.410162,62.4129724 37.5257059,63.1886822 37.5257059,63.1886822 L38.0853765,68.0351721 L43.1337411,66.5877836 C44.0740783,66.3231829 45.0030861,66.074413 45.9117011,65.8188585 L47.7629192,72.2529526 L51.6375617,71.1447958 L49.8090023,64.778548 L49.8090132,64.7785451 C50.8480858,64.5033604 51.884142,64.216957 52.9170047,63.9193844 L54.7342347,70.2584936 L58.6156748,69.1480753 L56.7712543,62.7252889 C63.1859402,60.4840983 67.2803724,57.5373058 66.0907891,51.2592583 C65.1345908,46.2069678 62.1844244,44.6736407 58.2259446,44.8455181 C60.1474048,43.0588979 60.9744483,40.6435684 59.680635,37.3824212 L59.6814101,37.3799364 Z M57.5155614,53.0141851 C58.8593192,57.8430674 50.6866283,59.6638307 48.1312856,60.4221037 L45.7499705,51.8631539 C48.3053133,51.1071512 56.1123258,47.9809778 57.5133586,53.0164554 L57.5155614,53.0141851 Z M52.429595,40.8110296 C53.6703015,45.3251785 46.7254805,46.8298948 44.559843,47.4761063 L42.3650914,39.4999434 C44.5284894,38.8537319 51.1329,36.1055834 52.429595,40.8133625 L52.429595,40.8110296 Z" id="形状" fill="#FF8E00" fill-rule="nonzero" transform="translate(48.000000, 49.701962) rotate(15.000000) translate(-48.000000, -49.701962) "></path>
            </g>
        </g>
    </g>
</svg>