<?xml version="1.0" encoding="UTF-8"?>
<svg width="96px" height="96px" viewBox="0 0 96 96" version="1.1" xmlns="http://www.w3.org/2000/svg" xmlns:xlink="http://www.w3.org/1999/xlink">
    <title>REP</title>
    <g id="页面-1" stroke="none" stroke-width="1" fill="none" fill-rule="evenodd">
        <g id="DEFI-认购-LP认购备份" transform="translate(-1518.000000, -163.000000)">
            <g id="REP" transform="translate(1518.000000, 163.000003)">
                <circle id="椭圆形" fill="#2D2D2D" cx="48" cy="48" r="48"></circle>
                <g id="编组-11" transform="translate(6.000000, 7.200000)" fill="#FFFFFF">
                    <path d="M41.58,0 C48.6779636,0 54.432,5.7540364 54.432,12.852 C54.432,17.4506626 52.0167162,21.4852055 48.3854896,23.7562876 L48.384,34.776 L58.5926232,34.7760147 C60.6096119,30.3178369 65.0965695,27.216 70.308,27.216 C77.4059636,27.216 83.16,32.9700364 83.16,40.068 C83.16,47.1659636 77.4059636,52.92 70.308,52.92 C65.7093374,52.92 61.6747945,50.5047162 59.4037124,46.8734896 L48.384,46.872 L48.3854896,57.8917124 C52.0167162,60.1627945 54.432,64.1973374 54.432,68.796 C54.432,75.8939636 48.6779636,81.648 41.58,81.648 C34.4820364,81.648 28.728,75.8939636 28.728,68.796 C28.728,63.5845695 31.8298369,59.0976119 36.2880147,57.0806232 L36.288,46.872 L23.7562876,46.8734896 C21.4852055,50.5047162 17.4506626,52.92 12.852,52.92 C5.7540364,52.92 0,47.1659636 0,40.068 C0,32.9700364 5.7540364,27.216 12.852,27.216 C18.0634305,27.216 22.5503881,30.3178369 24.5673768,34.7760147 L36.288,34.776 L36.2880147,24.5673768 C31.8298369,22.5503881 28.728,18.0634305 28.728,12.852 C28.728,5.7540364 34.4820364,0 41.58,0 Z M41.58,60.48 C36.9872,60.48 33.264,64.2032 33.264,68.796 C33.264,73.3888 36.9872,77.112 41.58,77.112 C46.1728,77.112 49.896,73.3888 49.896,68.796 C49.896,64.2032 46.1728,60.48 41.58,60.48 Z M70.308,31.752 C65.7152,31.752 61.992,35.4752 61.992,40.068 C61.992,44.6608 65.7152,48.384 70.308,48.384 C74.9008,48.384 78.624,44.6608 78.624,40.068 C78.624,35.4752 74.9008,31.752 70.308,31.752 Z M12.852,31.752 C8.25920002,31.752 4.536,35.4752 4.536,40.068 C4.536,44.6608 8.25920002,48.384 12.852,48.384 C17.4448,48.384 21.168,44.6608 21.168,40.068 C21.168,35.4752 17.4448,31.752 12.852,31.752 Z M41.58,4.536 C36.9872,4.536 33.264,8.25920002 33.264,12.852 C33.264,17.4448 36.9872,21.168 41.58,21.168 C46.1728,21.168 49.896,17.4448 49.896,12.852 C49.896,8.25920002 46.1728,4.536 41.58,4.536 Z" id="形状" fill-rule="nonzero"></path>
                    <circle id="椭圆形" cx="41.58" cy="12.852" r="6.804"></circle>
                    <circle id="椭圆形备份-2" cx="70.308" cy="40.068" r="6.804"></circle>
                    <circle id="椭圆形备份-4" cx="41.58" cy="68.796" r="6.804"></circle>
                    <circle id="椭圆形备份-6" cx="12.852" cy="40.068" r="6.804"></circle>
                </g>
            </g>
        </g>
    </g>
</svg>